<svg xmlns="http://www.w3.org/2000/svg" xmlns:xlink="http://www.w3.org/1999/xlink" width="100%" height="100%" version="1.1" viewBox="0 0 24 24" xml:space="preserve" style="fill-rule:evenodd;clip-rule:evenodd;stroke-linejoin:round;stroke-miterlimit:2"><g transform="matrix(1,0,0,1,0,-37)"><g id="ico-new" transform="matrix(0.0188976,0,0,0.0188976,30.0472,25.3213)"><rect width="1270" height="1270" x="-1590" y="618" style="fill:none"/><clipPath id="_clip1"><rect width="1270" height="1270" x="-1590" y="618"/></clipPath><g clip-path="url(#_clip1)"><g><path d="M119.37,229.64L168.96,328.82L260.49,328.96L282.64,297.79L119.37,229.64Z" transform="matrix(3.10649,0,0,3.10649,-1569.11,605.934)" style="fill:currentcolor;fill-rule:nonzero"/><path d="M84.95,240.53L151.62,332.05L260.49,332.23L282.64,297.99L84.95,240.53Z" transform="matrix(3.10649,0,0,3.10649,-1569.11,605.934)" style="fill:currentcolor;fill-rule:nonzero"/><path d="M164.89,129.03L197.34,154.21L226.68,97.91L216.71,91.53L164.89,129.03Z" transform="matrix(3.10649,0,0,3.10649,-1569.11,605.934)" style="fill:currentcolor;fill-rule:nonzero"/><path d="M260.49,332.23L164.89,129.03L185.34,114.24L296.58,276.42L260.49,332.23Z" transform="matrix(3.10649,0,0,3.10649,-1569.11,605.934)" style="fill:currentcolor;fill-rule:nonzero"/><path d="M207.51,98.19L269.78,148.49L226.08,84.36L207.51,98.19Z" transform="matrix(3.10649,0,0,3.10649,-1569.11,605.934)" style="fill:currentcolor;fill-rule:nonzero"/></g><g><path d="M-17.309,43.864C-17.309,44.733 -17.089,45.352 -16.649,45.721C-16.21,46.09 -15.727,46.306 -15.203,46.368L-15.203,47.358C-16.207,47.257 -17.037,46.962 -17.694,46.474C-18.352,45.986 -18.68,45.184 -18.68,44.067L-18.68,42.324C-18.68,41.709 -18.776,41.224 -18.968,40.869C-19.317,40.22 -19.989,39.842 -20.981,39.735L-20.981,38.77C-19.983,38.652 -19.312,38.283 -18.968,37.662C-18.776,37.318 -18.68,36.824 -18.68,36.181L-18.68,34.802C-18.68,33.742 -18.45,32.901 -17.991,32.281C-17.531,31.661 -16.602,31.291 -15.203,31.173L-15.203,32.137C-16.111,32.216 -16.726,32.617 -17.047,33.339C-17.222,33.733 -17.309,34.281 -17.309,34.98L-17.309,35.928C-17.309,36.774 -17.414,37.422 -17.622,37.874C-18,38.691 -18.734,39.151 -19.822,39.253C-18.739,39.349 -18.006,39.822 -17.622,40.674C-17.414,41.142 -17.309,41.78 -17.309,42.586L-17.309,43.864Z" transform="matrix(57.6108,0,0,71.2337,-381.245,-1544.02)" style="fill:currentcolor;fill-rule:nonzero"/></g><g><path d="M-17.309,43.864C-17.309,44.733 -17.089,45.352 -16.649,45.721C-16.21,46.09 -15.727,46.306 -15.203,46.368L-15.203,47.358C-16.207,47.257 -17.037,46.962 -17.694,46.474C-18.352,45.986 -18.68,45.184 -18.68,44.067L-18.68,42.324C-18.68,41.709 -18.776,41.224 -18.968,40.869C-19.317,40.22 -19.989,39.842 -20.981,39.735L-20.981,38.77C-19.983,38.652 -19.312,38.283 -18.968,37.662C-18.776,37.318 -18.68,36.824 -18.68,36.181L-18.68,34.802C-18.68,33.742 -18.45,32.901 -17.991,32.281C-17.531,31.661 -16.602,31.291 -15.203,31.173L-15.203,32.137C-16.111,32.216 -16.726,32.617 -17.047,33.339C-17.222,33.733 -17.309,34.281 -17.309,34.98L-17.309,35.928C-17.309,36.774 -17.414,37.422 -17.622,37.874C-18,38.691 -18.734,39.151 -19.822,39.253C-18.739,39.349 -18.006,39.822 -17.622,40.674C-17.414,41.142 -17.309,41.78 -17.309,42.586L-17.309,43.864Z" transform="matrix(-57.6108,0,0,71.2337,-1528.76,-1544.02)" style="fill:currentcolor;fill-rule:nonzero"/></g></g></g></g></svg>